<svg width="199" height="58" viewBox="0 0 199 58" fill="none" xmlns="http://www.w3.org/2000/svg">
<path d="M4.22727 46V11.0909H16.0227C18.75 11.0909 20.9886 11.5568 22.7386 12.4886C24.4886 13.4091 25.7841 14.6761 26.625 16.2898C27.4659 17.9034 27.8864 19.7386 27.8864 21.7955C27.8864 23.8523 27.4659 25.6761 26.625 27.267C25.7841 28.858 24.4943 30.108 22.7557 31.017C21.017 31.9148 18.7955 32.3636 16.0909 32.3636H6.54545V28.5455H15.9545C17.8182 28.5455 19.3182 28.2727 20.4545 27.7273C21.6023 27.1818 22.4318 26.4091 22.9432 25.4091C23.4659 24.3977 23.7273 23.1932 23.7273 21.7955C23.7273 20.3977 23.4659 19.1761 22.9432 18.1307C22.4205 17.0852 21.5852 16.2784 20.4375 15.7102C19.2898 15.1307 17.7727 14.8409 15.8864 14.8409H8.45455V46H4.22727ZM20.6591 30.3182L29.25 46H24.3409L15.8864 30.3182H20.6591ZM44.7401 46.5455C42.3764 46.5455 40.3026 45.983 38.5185 44.858C36.7457 43.733 35.3594 42.1591 34.3594 40.1364C33.3707 38.1136 32.8764 35.75 32.8764 33.0455C32.8764 30.3182 33.3707 27.9375 34.3594 25.9034C35.3594 23.8693 36.7457 22.2898 38.5185 21.1648C40.3026 20.0398 42.3764 19.4773 44.7401 19.4773C47.1037 19.4773 49.1719 20.0398 50.9446 21.1648C52.7287 22.2898 54.1151 23.8693 55.1037 25.9034C56.1037 27.9375 56.6037 30.3182 56.6037 33.0455C56.6037 35.75 56.1037 38.1136 55.1037 40.1364C54.1151 42.1591 52.7287 43.733 50.9446 44.858C49.1719 45.983 47.1037 46.5455 44.7401 46.5455ZM44.7401 42.9318C46.5355 42.9318 48.0128 42.4716 49.1719 41.5511C50.331 40.6307 51.1889 39.4205 51.7457 37.9205C52.3026 36.4205 52.581 34.7955 52.581 33.0455C52.581 31.2955 52.3026 29.6648 51.7457 28.1534C51.1889 26.642 50.331 25.4205 49.1719 24.4886C48.0128 23.5568 46.5355 23.0909 44.7401 23.0909C42.9446 23.0909 41.4673 23.5568 40.3082 24.4886C39.1491 25.4205 38.2912 26.642 37.7344 28.1534C37.1776 29.6648 36.8991 31.2955 36.8991 33.0455C36.8991 34.7955 37.1776 36.4205 37.7344 37.9205C38.2912 39.4205 39.1491 40.6307 40.3082 41.5511C41.4673 42.4716 42.9446 42.9318 44.7401 42.9318ZM66.767 30.25V46H62.7443V19.8182H66.6307V23.9091H66.9716C67.5852 22.5795 68.517 21.5114 69.767 20.7045C71.017 19.8864 72.6307 19.4773 74.608 19.4773C76.3807 19.4773 77.9318 19.8409 79.2614 20.5682C80.5909 21.2841 81.625 22.375 82.3636 23.8409C83.1023 25.2955 83.4716 27.1364 83.4716 29.3636V46H79.4489V29.6364C79.4489 27.5795 78.9148 25.9773 77.8466 24.8295C76.7784 23.6705 75.3125 23.0909 73.4489 23.0909C72.1648 23.0909 71.017 23.3693 70.0057 23.9261C69.0057 24.483 68.2159 25.2955 67.6364 26.3636C67.0568 27.4318 66.767 28.7273 66.767 30.25ZM98.527 46.6136C96.8679 46.6136 95.3622 46.3011 94.0099 45.6761C92.6577 45.0398 91.5838 44.125 90.7884 42.9318C89.9929 41.7273 89.5952 40.2727 89.5952 38.5682C89.5952 37.0682 89.8906 35.8523 90.4815 34.9205C91.0724 33.9773 91.8622 33.2386 92.8509 32.7045C93.8395 32.1705 94.9304 31.7727 96.1236 31.5114C97.3281 31.2386 98.5384 31.0227 99.7543 30.8636C101.345 30.6591 102.635 30.5057 103.624 30.4034C104.624 30.2898 105.351 30.1023 105.805 29.8409C106.271 29.5795 106.504 29.125 106.504 28.4773V28.3409C106.504 26.6591 106.044 25.3523 105.124 24.4205C104.214 23.4886 102.834 23.0227 100.982 23.0227C99.0611 23.0227 97.5554 23.4432 96.4645 24.2841C95.3736 25.125 94.6065 26.0227 94.1634 26.9773L90.3452 25.6136C91.027 24.0227 91.9361 22.7841 93.0724 21.8977C94.2202 21 95.4702 20.375 96.8224 20.0227C98.1861 19.6591 99.527 19.4773 100.845 19.4773C101.686 19.4773 102.652 19.5795 103.743 19.7841C104.845 19.9773 105.908 20.3807 106.93 20.9943C107.964 21.608 108.822 22.5341 109.504 23.7727C110.186 25.0114 110.527 26.6705 110.527 28.75V46H106.504V42.4545H106.3C106.027 43.0227 105.572 43.6307 104.936 44.2784C104.3 44.9261 103.453 45.4773 102.396 45.9318C101.339 46.3864 100.05 46.6136 98.527 46.6136ZM99.1406 43C100.732 43 102.072 42.6875 103.163 42.0625C104.266 41.4375 105.095 40.6307 105.652 39.642C106.22 38.6534 106.504 37.6136 106.504 36.5227V32.8409C106.334 33.0455 105.959 33.233 105.379 33.4034C104.811 33.5625 104.152 33.7045 103.402 33.8295C102.663 33.9432 101.942 34.0455 101.237 34.1364C100.544 34.2159 99.9815 34.2841 99.5497 34.3409C98.5043 34.4773 97.527 34.6989 96.6179 35.0057C95.7202 35.3011 94.9929 35.75 94.4361 36.3523C93.8906 36.9432 93.6179 37.75 93.6179 38.7727C93.6179 40.1705 94.1349 41.2273 95.169 41.9432C96.2145 42.6477 97.5384 43 99.1406 43ZM121.892 11.0909V46H117.869V11.0909H121.892ZM139.146 46.5455C136.964 46.5455 135.038 45.9943 133.368 44.892C131.697 43.7784 130.391 42.2102 129.447 40.1875C128.504 38.1534 128.033 35.75 128.033 32.9773C128.033 30.2273 128.504 27.8409 129.447 25.8182C130.391 23.7955 131.703 22.233 133.385 21.1307C135.067 20.0284 137.01 19.4773 139.214 19.4773C140.919 19.4773 142.266 19.7614 143.254 20.3295C144.254 20.8864 145.016 21.5227 145.538 22.2386C146.072 22.9432 146.487 23.5227 146.783 23.9773H147.124V11.0909H151.146V46H147.26V41.9773H146.783C146.487 42.4545 146.067 43.0568 145.521 43.7841C144.976 44.5 144.197 45.142 143.186 45.7102C142.175 46.267 140.828 46.5455 139.146 46.5455ZM139.692 42.9318C141.305 42.9318 142.669 42.5114 143.783 41.6705C144.896 40.8182 145.743 39.642 146.322 38.142C146.902 36.6307 147.192 34.8864 147.192 32.9091C147.192 30.9545 146.908 29.2443 146.339 27.7784C145.771 26.3011 144.93 25.1534 143.817 24.3352C142.703 23.5057 141.328 23.0909 139.692 23.0909C137.987 23.0909 136.567 23.5284 135.43 24.4034C134.305 25.267 133.459 26.4432 132.891 27.9318C132.334 29.4091 132.055 31.0682 132.055 32.9091C132.055 34.7727 132.339 36.4659 132.908 37.9886C133.487 39.5 134.339 40.7045 135.464 41.6023C136.601 42.4886 138.01 42.9318 139.692 42.9318ZM169.709 46.5455C167.345 46.5455 165.271 45.983 163.487 44.858C161.714 43.733 160.328 42.1591 159.328 40.1364C158.339 38.1136 157.845 35.75 157.845 33.0455C157.845 30.3182 158.339 27.9375 159.328 25.9034C160.328 23.8693 161.714 22.2898 163.487 21.1648C165.271 20.0398 167.345 19.4773 169.709 19.4773C172.072 19.4773 174.141 20.0398 175.913 21.1648C177.697 22.2898 179.084 23.8693 180.072 25.9034C181.072 27.9375 181.572 30.3182 181.572 33.0455C181.572 35.75 181.072 38.1136 180.072 40.1364C179.084 42.1591 177.697 43.733 175.913 44.858C174.141 45.983 172.072 46.5455 169.709 46.5455ZM169.709 42.9318C171.504 42.9318 172.982 42.4716 174.141 41.5511C175.3 40.6307 176.158 39.4205 176.714 37.9205C177.271 36.4205 177.55 34.7955 177.55 33.0455C177.55 31.2955 177.271 29.6648 176.714 28.1534C176.158 26.642 175.3 25.4205 174.141 24.4886C172.982 23.5568 171.504 23.0909 169.709 23.0909C167.913 23.0909 166.436 23.5568 165.277 24.4886C164.118 25.4205 163.26 26.642 162.703 28.1534C162.146 29.6648 161.868 31.2955 161.868 33.0455C161.868 34.7955 162.146 36.4205 162.703 37.9205C163.26 39.4205 164.118 40.6307 165.277 41.5511C166.436 42.4716 167.913 42.9318 169.709 42.9318Z" fill="#333333"/>
<path d="M191.614 46.2727C190.773 46.2727 190.051 45.9716 189.449 45.3693C188.847 44.767 188.545 44.0455 188.545 43.2045C188.545 42.3636 188.847 41.642 189.449 41.0398C190.051 40.4375 190.773 40.1364 191.614 40.1364C192.455 40.1364 193.176 40.4375 193.778 41.0398C194.381 41.642 194.682 42.3636 194.682 43.2045C194.682 43.7614 194.54 44.2727 194.256 44.7386C193.983 45.2045 193.614 45.5795 193.148 45.8636C192.693 46.1364 192.182 46.2727 191.614 46.2727Z" fill="#66664B"/>
</svg>
