<svg width="400" height="116" viewBox="0 0 400 116" fill="none" xmlns="http://www.w3.org/2000/svg">
<path d="M6.88636 93V23.1818H33.0682C38.4318 23.1818 42.9318 24.1136 46.5682 25.9773C50.2273 27.8409 52.9886 30.4545 54.8523 33.8182C56.7386 37.1591 57.6818 41.0568 57.6818 45.5114C57.6818 49.9886 56.7273 53.875 54.8182 57.1705C52.9318 60.4432 50.1477 62.9773 46.4659 64.7727C42.7841 66.5455 38.2614 67.4318 32.8977 67.4318H14.25V56.9318H31.1932C34.3295 56.9318 36.8977 56.5 38.8977 55.6364C40.8977 54.75 42.375 53.4659 43.3295 51.7841C44.3068 50.0795 44.7955 47.9886 44.7955 45.5114C44.7955 43.0341 44.3068 40.9205 43.3295 39.1705C42.3523 37.3977 40.8636 36.0568 38.8636 35.1477C36.8636 34.2159 34.2841 33.75 31.125 33.75H19.5341V93H6.88636ZM42.9545 61.3636L60.2386 93H46.125L29.1477 61.3636H42.9545ZM90.8693 94.0227C85.7557 94.0227 81.3239 92.8977 77.5739 90.6477C73.8239 88.3977 70.9148 85.25 68.8466 81.2045C66.8011 77.1591 65.7784 72.4318 65.7784 67.0227C65.7784 61.6136 66.8011 56.875 68.8466 52.8068C70.9148 48.7386 73.8239 45.5795 77.5739 43.3295C81.3239 41.0795 85.7557 39.9545 90.8693 39.9545C95.983 39.9545 100.415 41.0795 104.165 43.3295C107.915 45.5795 110.813 48.7386 112.858 52.8068C114.926 56.875 115.96 61.6136 115.96 67.0227C115.96 72.4318 114.926 77.1591 112.858 81.2045C110.813 85.25 107.915 88.3977 104.165 90.6477C100.415 92.8977 95.983 94.0227 90.8693 94.0227ZM90.9375 84.1364C93.7102 84.1364 96.0284 83.375 97.892 81.8523C99.7557 80.3068 101.142 78.2386 102.051 75.6477C102.983 73.0568 103.449 70.1705 103.449 66.9886C103.449 63.7841 102.983 60.8864 102.051 58.2955C101.142 55.6818 99.7557 53.6023 97.892 52.0568C96.0284 50.5114 93.7102 49.7386 90.9375 49.7386C88.0966 49.7386 85.733 50.5114 83.8466 52.0568C81.983 53.6023 80.5852 55.6818 79.6534 58.2955C78.7443 60.8864 78.2898 63.7841 78.2898 66.9886C78.2898 70.1705 78.7443 73.0568 79.6534 75.6477C80.5852 78.2386 81.983 80.3068 83.8466 81.8523C85.733 83.375 88.0966 84.1364 90.9375 84.1364ZM138.776 62.3182V93H126.435V40.6364H138.23V49.5341H138.844C140.048 46.6023 141.969 44.2727 144.605 42.5455C147.264 40.8182 150.548 39.9545 154.457 39.9545C158.071 39.9545 161.219 40.7273 163.901 42.2727C166.605 43.8182 168.696 46.0568 170.173 48.9886C171.673 51.9205 172.412 55.4773 172.389 59.6591V93H160.048V61.5682C160.048 58.0682 159.139 55.3295 157.321 53.3523C155.526 51.375 153.037 50.3864 149.855 50.3864C147.696 50.3864 145.776 50.8636 144.094 51.8182C142.435 52.75 141.128 54.1023 140.173 55.875C139.241 57.6477 138.776 59.7955 138.776 62.3182ZM200.003 94.0568C196.685 94.0568 193.696 93.4659 191.037 92.2841C188.401 91.0795 186.31 89.3068 184.764 86.9659C183.241 84.625 182.48 81.7386 182.48 78.3068C182.48 75.3523 183.026 72.9091 184.116 70.9773C185.207 69.0455 186.696 67.5 188.582 66.3409C190.469 65.1818 192.594 64.3068 194.957 63.7159C197.344 63.1023 199.81 62.6591 202.355 62.3864C205.423 62.0682 207.912 61.7841 209.821 61.5341C211.73 61.2614 213.116 60.8523 213.98 60.3068C214.866 59.7386 215.31 58.8636 215.31 57.6818V57.4773C215.31 54.9091 214.548 52.9205 213.026 51.5114C211.503 50.1023 209.31 49.3977 206.446 49.3977C203.423 49.3977 201.026 50.0568 199.253 51.375C197.503 52.6932 196.321 54.25 195.707 56.0455L184.185 54.4091C185.094 51.2273 186.594 48.5682 188.685 46.4318C190.776 44.2727 193.332 42.6591 196.355 41.5909C199.378 40.5 202.719 39.9545 206.378 39.9545C208.901 39.9545 211.412 40.25 213.912 40.8409C216.412 41.4318 218.696 42.4091 220.764 43.7727C222.832 45.1136 224.491 46.9432 225.741 49.2614C227.014 51.5795 227.651 54.4773 227.651 57.9545V93H215.787V85.8068H215.378C214.628 87.2614 213.571 88.625 212.207 89.8977C210.866 91.1477 209.173 92.1591 207.128 92.9318C205.105 93.6818 202.73 94.0568 200.003 94.0568ZM203.207 84.9886C205.685 84.9886 207.832 84.5 209.651 83.5227C211.469 82.5227 212.866 81.2045 213.844 79.5682C214.844 77.9318 215.344 76.1477 215.344 74.2159V68.0455C214.957 68.3636 214.298 68.6591 213.366 68.9318C212.457 69.2045 211.435 69.4432 210.298 69.6477C209.162 69.8523 208.037 70.0341 206.923 70.1932C205.81 70.3523 204.844 70.4886 204.026 70.6023C202.185 70.8523 200.537 71.2614 199.082 71.8295C197.628 72.3977 196.48 73.1932 195.639 74.2159C194.798 75.2159 194.378 76.5114 194.378 78.1023C194.378 80.375 195.207 82.0909 196.866 83.25C198.526 84.4091 200.639 84.9886 203.207 84.9886ZM252.401 23.1818V93H240.06V23.1818H252.401ZM284.523 93.9205C280.409 93.9205 276.727 92.8636 273.477 90.75C270.227 88.6364 267.659 85.5682 265.773 81.5455C263.886 77.5227 262.943 72.6364 262.943 66.8864C262.943 61.0682 263.898 56.1591 265.807 52.1591C267.739 48.1364 270.341 45.1023 273.614 43.0568C276.886 40.9886 280.534 39.9545 284.557 39.9545C287.625 39.9545 290.148 40.4773 292.125 41.5227C294.102 42.5455 295.67 43.7841 296.83 45.2386C297.989 46.6705 298.886 48.0227 299.523 49.2955H300.034V23.1818H312.409V93H300.273V84.75H299.523C298.886 86.0227 297.966 87.375 296.761 88.8068C295.557 90.2159 293.966 91.4205 291.989 92.4205C290.011 93.4205 287.523 93.9205 284.523 93.9205ZM287.966 83.7955C290.58 83.7955 292.807 83.0909 294.648 81.6818C296.489 80.25 297.886 78.2614 298.841 75.7159C299.795 73.1705 300.273 70.2045 300.273 66.8182C300.273 63.4318 299.795 60.4886 298.841 57.9886C297.909 55.4886 296.523 53.5455 294.682 52.1591C292.864 50.7727 290.625 50.0795 287.966 50.0795C285.216 50.0795 282.92 50.7955 281.08 52.2273C279.239 53.6591 277.852 55.6364 276.92 58.1591C275.989 60.6818 275.523 63.5682 275.523 66.8182C275.523 70.0909 275.989 73.0114 276.92 75.5795C277.875 78.125 279.273 80.1364 281.114 81.6136C282.977 83.0682 285.261 83.7955 287.966 83.7955ZM348.401 94.0227C343.287 94.0227 338.855 92.8977 335.105 90.6477C331.355 88.3977 328.446 85.25 326.378 81.2045C324.332 77.1591 323.31 72.4318 323.31 67.0227C323.31 61.6136 324.332 56.875 326.378 52.8068C328.446 48.7386 331.355 45.5795 335.105 43.3295C338.855 41.0795 343.287 39.9545 348.401 39.9545C353.514 39.9545 357.946 41.0795 361.696 43.3295C365.446 45.5795 368.344 48.7386 370.389 52.8068C372.457 56.875 373.491 61.6136 373.491 67.0227C373.491 72.4318 372.457 77.1591 370.389 81.2045C368.344 85.25 365.446 88.3977 361.696 90.6477C357.946 92.8977 353.514 94.0227 348.401 94.0227ZM348.469 84.1364C351.241 84.1364 353.56 83.375 355.423 81.8523C357.287 80.3068 358.673 78.2386 359.582 75.6477C360.514 73.0568 360.98 70.1705 360.98 66.9886C360.98 63.7841 360.514 60.8864 359.582 58.2955C358.673 55.6818 357.287 53.6023 355.423 52.0568C353.56 50.5114 351.241 49.7386 348.469 49.7386C345.628 49.7386 343.264 50.5114 341.378 52.0568C339.514 53.6023 338.116 55.6818 337.185 58.2955C336.276 60.8864 335.821 63.7841 335.821 66.9886C335.821 70.1705 336.276 73.0568 337.185 75.6477C338.116 78.2386 339.514 80.3068 341.378 81.8523C343.264 83.375 345.628 84.1364 348.469 84.1364Z" fill="#333333"/>
<path d="M391.521 101.75C389.453 101.75 387.68 101.023 386.203 99.5682C384.726 98.1136 383.999 96.3409 384.021 94.25C383.999 92.2045 384.726 90.4545 386.203 89C387.68 87.5455 389.453 86.8182 391.521 86.8182C393.521 86.8182 395.26 87.5455 396.737 89C398.237 90.4545 398.999 92.2045 399.021 94.25C398.999 95.6364 398.635 96.8977 397.93 98.0341C397.249 99.1705 396.339 100.08 395.203 100.761C394.089 101.42 392.862 101.75 391.521 101.75Z" fill="#66664B"/>
</svg>
