<svg width="84" height="76" viewBox="0 0 84 76" fill="none" xmlns="http://www.w3.org/2000/svg">
<path d="M4.49998 0.5H79.5C80.6051 0.5 81.6649 0.938987 82.4463 1.72039C83.2277 2.50179 83.6667 3.5616 83.6667 4.66667V71.3333C83.6667 72.4384 83.2277 73.4982 82.4463 74.2796C81.6649 75.061 80.6051 75.5 79.5 75.5H4.49998C3.39491 75.5 2.3351 75.061 1.5537 74.2796C0.7723 73.4982 0.333313 72.4384 0.333313 71.3333V4.66667C0.333313 3.5616 0.7723 2.50179 1.5537 1.72039C2.3351 0.938987 3.39491 0.5 4.49998 0.5ZM42.25 36.6792L15.5333 13.9917L10.1375 20.3417L42.3041 47.6542L73.8916 20.3208L68.4417 14.0167L42.25 36.6792Z" fill="white"/>
</svg>
