<svg width="84" height="82" viewBox="0 0 84 82" fill="none" xmlns="http://www.w3.org/2000/svg">
<path d="M42.0001 0.333008C18.9793 0.333008 0.333441 18.9788 0.333441 41.9997C0.328715 50.7467 3.0785 59.273 8.19267 66.3692C13.3068 73.4653 20.5257 78.7708 28.8251 81.533C30.9084 81.8955 31.6876 80.6455 31.6876 79.5497C31.6876 78.5622 31.6334 75.283 31.6334 71.7913C21.1668 73.7205 18.4584 69.2413 17.6251 66.8955C17.1543 65.6955 15.1251 61.9997 13.3543 61.008C11.8959 60.2288 9.81261 58.2997 13.3001 58.2497C16.5834 58.1955 18.9251 61.2705 19.7084 62.5205C23.4584 68.8205 29.4501 67.0497 31.8418 65.958C32.2084 63.2497 33.3001 61.4288 34.5001 60.3872C25.2293 59.3455 15.5418 55.7497 15.5418 39.8122C15.5418 35.2788 17.1543 31.533 19.8126 28.6122C19.3959 27.5705 17.9376 23.2997 20.2293 17.5705C20.2293 17.5705 23.7168 16.4788 31.6876 21.8455C35.0795 20.9041 38.5841 20.4303 42.1043 20.4372C45.6459 20.4372 49.1876 20.9038 52.5209 21.8413C60.4876 16.4247 63.9793 17.5747 63.9793 17.5747C66.2709 23.3038 64.8126 27.5747 64.396 28.6163C67.0501 31.533 68.6668 35.2288 68.6668 39.8122C68.6668 55.8038 58.9293 59.3455 49.6584 60.3872C51.1668 61.6872 52.4709 64.1872 52.4709 68.0955C52.4709 73.6663 52.4168 78.1455 52.4168 79.5538C52.4168 80.6455 53.2001 81.9455 55.2834 81.5288C63.5544 78.7363 70.7414 73.4205 75.833 66.3295C80.9246 59.2385 83.6644 50.7293 83.6668 41.9997C83.6668 18.9788 65.021 0.333008 42.0001 0.333008Z" fill="white"/>
</svg>
