<svg width="76" height="76" viewBox="0 0 76 76" fill="none" xmlns="http://www.w3.org/2000/svg">
<path d="M64.3959 64.4125H53.2917V47.0083C53.2917 42.8583 53.2084 37.5167 47.5001 37.5167C41.7126 37.5167 40.8292 42.0333 40.8292 46.7042V64.4125H29.7209V28.625H40.3876V33.5H40.5334C42.0251 30.6917 45.6501 27.7208 51.0667 27.7208C62.3167 27.7208 64.4001 35.1292 64.4001 44.7667V64.4125H64.3959ZM17.1792 23.7292C16.3315 23.7303 15.492 23.564 14.7087 23.24C13.9253 22.916 13.2137 22.4406 12.6145 21.841C12.0153 21.2414 11.5403 20.5294 11.2168 19.7459C10.8933 18.9624 10.7276 18.1227 10.7292 17.275C10.7301 15.9993 11.1091 14.7525 11.8186 13.6923C12.528 12.632 13.5359 11.806 14.7148 11.3185C15.8937 10.8311 17.1906 10.7042 18.4416 10.9539C19.6927 11.2036 20.8415 11.8186 21.743 12.7213C22.6445 13.6239 23.258 14.7736 23.5061 16.0249C23.7542 17.2763 23.6256 18.5731 23.1367 19.7513C22.6477 20.9296 21.8203 21.9364 20.7592 22.6445C19.698 23.3525 18.4549 23.73 17.1792 23.7292ZM22.7459 64.4125H11.6084V28.625H22.7501V64.4125H22.7459ZM69.9584 0.5H6.03756C2.97089 0.5 0.500061 2.91667 0.500061 5.90417V70.0958C0.500061 73.0833 2.97506 75.5 6.03339 75.5H69.9417C73.0001 75.5 75.5001 73.0833 75.5001 70.0958V5.90417C75.5001 2.91667 73.0001 0.5 69.9417 0.5H69.9584Z" fill="white"/>
</svg>
